:FULLY-SPECIFIED
:FORCE-ALL-JOINTS-BE-3DOF
:DEGREES
781
root 1.65249 16.3546 18.6904 -13.7384 76.62 -19.7173
lfemur -36.4799 13.2641 -14.2586
ltibia 50.2606 -0 0
lfoot -21.773 20.0749 -0.0798947
ltoes 16.2526 -0 0
rfemur -16.1022 -22.5332 21.4395
rtibia 51.9852 -0 0
rfoot -17.7555 -32.0868 0.0771858
rtoes -25.0623 0 0
lowerback 1.2875 4.60434 -0.938215
upperback -0.83651 6.12084 -3.77734
thorax -1.25187 3.07071 -3.47549
lowerneck -5.34932 -6.60979 -0.643519
upperneck -2.37045 -8.70306 5.11006
head 0.426078 -4.27832 1.50298
lclavicle 5.82632e-15 1.79852e-16 1.78754e-32
lhumerus -55.5609 -11.8002 94.6798
lradius 70.4677 -0 0
lwrist 13.0409 0 0
lhand -20.9272 -4.9747 0.0282804
lfingers 7.12502 -0 0
lthumb 5.44322 24.908 0.0180595
rclavicle 5.82632e-15 1.79852e-16 1.78754e-32
rhumerus -30.4952 47.4647 -111.611
rradius 79.7824 -0 0
rwrist 5.86671 0 0
rhand -23.7047 -20.2168 -0.0170529
rfingers 7.12502 -0 0
rthumb 2.7623 -50.1711 -0.0149764
782
root 1.68097 16.3571 18.8193 -13.3018 75.9148 -19.0799
lfemur -36.1972 13.1757 -14.2999
ltibia 50.0802 -0 0
lfoot -21.5887 19.5117 -0.157982
ltoes 16.3428 -0 0
rfemur -16.6326 -22.2488 21.3744
rtibia 51.9339 -0 0
rfoot -17.5017 -31.683 0.152585
rtoes -24.9326 0 0
lowerback 1.42956 4.5263 -0.97303
upperback -0.771539 6.0171 -3.74103
thorax -1.26709 3.01739 -3.41385
lowerneck -5.36716 -6.56954 -0.606184
upperneck -2.24946 -8.65884 5.08577
head 0.465641 -4.25355 1.48959
lclavicle 5.6891e-15 3.59705e-16 3.53201e-32
lhumerus -55.3401 -11.9596 94.5401
lradius 70.3017 -0 0
lwrist 13.1596 0 0
lhand -20.5722 -4.86718 0.0558954
lfingers 7.12502 -0 0
lthumb 5.78444 24.9796 0.0356929
rclavicle 5.6891e-15 3.59705e-16 3.53201e-32
rhumerus -30.343 46.8006 -110.73
rradius 79.4486 -0 0
rwrist 5.80955 0 0
rhand -23.5025 -20.3322 -0.0336986
rfingers 7.12502 -0 0
rthumb 2.95736 -50.2762 -0.0295949
783
root 1.70944 16.3596 18.9482 -12.9163 75.2086 -18.4933
lfemur -35.9147 13.0875 -14.3416
ltibia 49.8998 -0 0
lfoot -21.4035 18.9484 -0.234253
ltoes 16.433 -0 0
rfemur -17.1622 -21.9649 21.3067
rtibia 51.8825 -0 0
rfoot -17.2474 -31.2789 0.226194
rtoes -24.8028 0 0
lowerback 1.57165 4.44834 -1.00804
upperback -0.706647 5.91332 -3.70485
thorax -1.28237 2.96409 -3.35219
lowerneck -5.38496 -6.52927 -0.568864
upperneck -2.1285 -8.61456 5.06159
head 0.505198 -4.22876 1.47622
lclavicle 5.55188e-15 5.39557e-16 5.2334e-32
lhumerus -55.1188 -12.1185 94.3997
lradius 70.1357 -0 0
lwrist 13.2783 0 0
lhand -20.2172 -4.7595 0.0828437
lfingers 7.12502 -0 0
lthumb 6.1257 25.0513 0.0528994
rclavicle 5.55188e-15 5.39557e-16 5.2334e-32
rhumerus -30.2075 46.135 -109.863
rradius 79.1149 -0 0
rwrist 5.75239 0 0
rhand -23.3003 -20.4477 -0.0499369
rfingers 7.12502 -0 0
rthumb 3.15245 -50.3814 -0.0438553
784
root 1.73792 16.3621 19.0771 -12.575 74.5014 -17.9507
lfemur -35.6321 12.9996 -14.3837
ltibia 49.7194 -0 0
lfoot -21.2177 18.3848 -0.308699
ltoes 16.5233 -0 0
rfemur -17.6912 -21.6817 21.2363
rtibia 51.8312 -0 0
rfoot -16.9925 -30.8744 0.298006
rtoes -24.6731 0 0
lowerback 1.71378 4.37048 -1.04323
upperback -0.641833 5.8095 -3.66879
thorax -1.2977 2.91081 -3.29053
lowerneck -5.40274 -6.48899 -0.53156
upperneck -2.00757 -8.57024 5.0375
head 0.544747 -4.20397 1.46287
lclavicle 5.41466e-15 7.1941e-16 6.89173e-32
lhumerus -54.8969 -12.2769 94.2586
lradius 69.9697 -0 0
lwrist 13.397 0 0
lhand -19.8622 -4.65165 0.109124
lfingers 7.12502 -0 0
lthumb 6.46697 25.1232 0.0696785
rclavicle 5.41466e-15 7.1941e-16 6.89173e-32
rhumerus -30.088 45.468 -109.007
rradius 78.7812 -0 0
rwrist 5.69524 0 0
rhand -23.098 -20.5632 -0.0657676
rfingers 7.12502 -0 0
rthumb 3.34757 -50.4867 -0.0577574
785
root 1.76639 16.3646 19.206 -12.2723 73.7934 -17.4462
lfemur -35.3496 12.9118 -14.4263
ltibia 49.539 -0 0
lfoot -21.0311 17.821 -0.381314
ltoes 16.6135 -0 0
rfemur -18.2196 -21.3991 21.1632
rtibia 51.7799 -0 0
rfoot -16.7372 -30.4696 0.368016
rtoes -24.5433 0 0
lowerback 1.85593 4.2927 -1.07862
upperback -0.577097 5.70564 -3.63286
thorax -1.31309 2.85754 -3.22885
lowerneck -5.42049 -6.4487 -0.494271
upperneck -1.88668 -8.52587 5.0135
head 0.584289 -4.17917 1.44953
lclavicle 5.27744e-15 8.99262e-16 8.50697e-32
lhumerus -54.6745 -12.4347 94.1169
lradius 69.8037 -0 0
lwrist 13.5157 0 0
lhand -19.5071 -4.54364 0.134736
lfingers 7.12502 -0 0
lthumb 6.80826 25.1951 0.0860294
rclavicle 5.27744e-15 8.99262e-16 8.50697e-32
rhumerus -29.9839 44.7999 -108.164
rradius 78.4475 -0 0
rwrist 5.63808 0 0
rhand -22.8957 -20.6788 -0.0811903
rfingers 7.12502 -0 0
rthumb 3.54271 -50.592 -0.071301
786
root 1.79486 16.3671 19.3349 -12.0034 73.0848 -16.9752
lfemur -35.0672 12.8242 -14.4692
ltibia 49.3587 -0 0
lfoot -20.8438 17.2569 -0.452088
ltoes 16.7037 -0 0
rfemur -18.7473 -21.1171 21.0874
rtibia 51.7286 -0 0
rfoot -16.4814 -30.0645 0.43622
rtoes -24.4135 0 0
lowerback 1.99813 4.21501 -1.11419
upperback -0.512438 5.60173 -3.59706
thorax -1.32853 2.80428 -3.16716
lowerneck -5.43821 -6.4084 -0.456998
upperneck -1.76581 -8.48145 4.98961
head 0.623824 -4.15435 1.43621
lclavicle 5.14023e-15 1.07911e-15 1.00791e-31
lhumerus -54.4516 -12.592 93.9744
lradius 69.6377 -0 0
lwrist 13.6344 0 0
lhand -19.1519 -4.43547 0.159678
lfingers 7.12502 -0 0
lthumb 7.14957 25.2671 0.101952
rclavicle 5.14023e-15 1.07911e-15 1.00791e-31
rhumerus -29.8948 44.1307 -107.332
rradius 78.1137 -0 0
rwrist 5.58092 0 0
rhand -22.6933 -20.7944 -0.0962048
rfingers 7.12502 -0 0
rthumb 3.73788 -50.6973 -0.0844859
787
root 1.82334 16.3696 19.4639 -11.7642 72.3755 -16.5335
lfemur -34.7847 12.7368 -14.5126
ltibia 49.1783 -0 0
lfoot -20.6558 16.6926 -0.521015
ltoes 16.7939 -0 0
rfemur -19.2744 -20.8358 21.009
rtibia 51.6773 -0 0
rfoot -16.225 -29.6591 0.502612
rtoes -24.2838 0 0
lowerback 2.14035 4.13741 -1.14995
upperback -0.447855 5.49779 -3.56137
thorax -1.34404 2.75105 -3.10546
lowerneck -5.45591 -6.36808 -0.41974
upperneck -1.64498 -8.43697 4.96581
head 0.663352 -4.12953 1.42291
lclavicle 5.00301e-15 1.25897e-15 1.16082e-31
lhumerus -54.2281 -12.7488 93.8311
lradius 69.4717 -0 0
lwrist 13.7532 0 0
lhand -18.7967 -4.32715 0.183948
lfingers 7.12502 -0 0
lthumb 7.49091 25.3392 0.117445
rclavicle 5.00301e-15 1.25897e-15 1.16082e-31
rhumerus -29.82 43.4608 -106.511
rradius 77.78 -0 0
rwrist 5.52376 0 0
rhand -22.491 -20.9101 -0.110811
rfingers 7.12502 -0 0
rthumb 3.93307 -50.8027 -0.0973119
788
root 1.85181 16.3721 19.5928 -11.5514 71.6658 -16.1178
lfemur -34.5023 12.6497 -14.5565
ltibia 48.9979 -0 0
lfoot -20.4671 16.128 -0.588086
ltoes 16.8841 -0 0
rfemur -19.801 -20.5552 20.928
rtibia 51.6259 -0 0
rfoot -15.9683 -29.2534 0.567189
rtoes -24.154 0 0
lowerback 2.28261 4.0599 -1.18591
upperback -0.383348 5.39381 -3.52581
thorax -1.3596 2.69783 -3.04375
lowerneck -5.47357 -6.32776 -0.382498
upperneck -1.52419 -8.39245 4.94211
head 0.702873 -4.1047 1.40963
lclavicle 4.86579e-15 1.43882e-15 1.30943e-31
lhumerus -54.0041 -12.905 93.6872
lradius 69.3057 -0 0
lwrist 13.8719 0 0
lhand -18.4415 -4.21868 0.207547
lfingers 7.12502 -0 0
lthumb 7.83226 25.4114 0.132508
rclavicle 4.86579e-15 1.43882e-15 1.30943e-31
rhumerus -29.7591 42.7901 -105.7
rradius 77.4463 -0 0
rwrist 5.4666 0 0
rhand -22.2886 -21.0258 -0.125008
rfingers 7.12502 -0 0
rthumb 4.12829 -50.9081 -0.109779
789
root 1.88029 16.3746 19.7217 -11.362 70.9556 -15.7251
lfemur -34.2199 12.5627 -14.6007
ltibia 48.8175 -0 0
lfoot -20.2778 15.5632 -0.653296
ltoes 16.9743 -0 0
rfemur -20.327 -20.2752 20.8444
rtibia 51.5746 -0 0
rfoot -15.711 -28.8474 0.629946
rtoes -24.0242 0 0
lowerback 2.42491 3.98247 -1.22205
upperback -0.318917 5.28979 -3.49038
thorax -1.37521 2.64462 -2.98203
lowerneck -5.49121 -6.28742 -0.345271
upperneck -1.40342 -8.34788 4.91851
head 0.742386 -4.07986 1.39636
lclavicle 4.72857e-15 1.61867e-15 1.45372e-31
lhumerus -53.7795 -13.0607 93.5426
lradius 69.1397 -0 0
lwrist 13.9906 0 0
lhand -18.0862 -4.11007 0.230473
lfingers 7.12502 -0 0
lthumb 8.17363 25.4837 0.14714
rclavicle 4.72857e-15 1.61867e-15 1.45372e-31
rhumerus -29.7116 42.1188 -104.899
rradius 77.1126 -0 0
rwrist 5.40944 0 0
rhand -22.0861 -21.1416 -0.138797
rfingers 7.12502 -0 0
rthumb 4.32353 -51.0136 -0.121886
790
root 1.90876 16.3771 19.8506 -11.1935 70.245 -15.353
lfemur -33.9376 12.476 -14.6454
ltibia 48.6371 -0 0
lfoot -20.0879 14.9982 -0.716635
ltoes 17.0646 -0 0
rfemur -20.8525 -19.996 20.7582
rtibia 51.5233 -0 0
rfoot -15.4533 -28.4411 0.690877
rtoes -23.8945 0 0
lowerback 2.56724 3.90514 -1.25838
upperback -0.254562 5.18573 -3.45506
thorax -1.39089 2.59144 -2.9203
lowerneck -5.50882 -6.24707 -0.30806
upperneck -1.28269 -8.30326 4.895
head 0.781893 -4.05501 1.38311
lclavicle 4.59135e-15 1.79852e-15 1.59371e-31
lhumerus -53.5544 -13.2158 93.3972
lradius 68.9737 -0 0
lwrist 14.1093 0 0
lhand -17.7309 -4.00132 0.252724
lfingers 7.12502 -0 0
lthumb 8.51502 25.5561 0.161342
rclavicle 4.59135e-15 1.79852e-15 1.59371e-31
rhumerus -29.6772 41.4472 -104.106
rradius 76.7788 -0 0
rwrist 5.35228 0 0
rhand -21.8837 -21.2574 -0.152176
rfingers 7.12502 -0 0
rthumb 4.51879 -51.1191 -0.133634
791
root 1.93723 16.3796 19.9795 -11.0439 69.5341 -14.9992
lfemur -33.6552 12.3895 -14.6905
ltibia 48.4567 -0 0
lfoot -19.8973 14.433 -0.778099
ltoes 17.1548 -0 0
rfemur -21.3775 -19.7176 20.6695
rtibia 51.472 -0 0
rfoot -15.1952 -28.0346 0.749979
rtoes -23.7647 0 0
lowerback 2.70961 3.82789 -1.29491
upperback -0.190281 5.08163 -3.41988
thorax -1.40661 2.53827 -2.85855
lowerneck -5.52641 -6.20671 -0.270864
upperneck -1.16199 -8.25859 4.8716
head 0.821393 -4.03015 1.36988
lclavicle 4.45413e-15 1.97838e-15 1.72939e-31
lhumerus -53.3288 -13.3703 93.2511
lradius 68.8077 -0 0
lwrist 14.228 0 0
lhand -17.3755 -3.89243 0.274301
lfingers 7.12502 -0 0
lthumb 8.85643 25.6285 0.175112
rclavicle 4.45413e-15 1.97838e-15 1.72939e-31
rhumerus -29.6554 40.7752 -103.322
rradius 76.4451 -0 0
rwrist 5.29513 0 0
rhand -21.6812 -21.3733 -0.165146
rfingers 7.12502 -0 0
rthumb 4.71407 -51.2246 -0.145023
